<?xml version="1.0" encoding="utf-8" ?>
<svg baseProfile="full" height="200mm" version="1.1" viewBox="0,0,200,200" width="200mm" xmlns="http://www.w3.org/2000/svg" xmlns:ev="http://www.w3.org/2001/xml-events" xmlns:xlink="http://www.w3.org/1999/xlink"><defs /><rect fill="#1a1a1a" height="200" width="200" x="0" y="0" /><text alignment-baseline="middle" fill="#e1ed5e" style="dominant-baseline: central; font-size:9.0px; font-family:Arial;" text-anchor="middle" x="100.0" y="100.0">2025</text><line stroke="#e1ed5e" stroke-width="0.3" x1="100.0" x2="100.0" y1="15.0" y2="10.0" /><path d="M 100.0 14.0 a86.0,86.0 0 0,1 42.46469731375804,11.215312516191453" fill="none" id="id1" stroke="none" /><text fill="#e1ed5e" style="font-size:6.75px; font-family:Arial;" text-anchor="middle"><textPath startOffset="22.20632615414155" xlink:href="#id1">January</textPath></text><path d="M 101.44485096284872 79.0497635885617 l 0.3046794097775321 -4.417829816821824 a25.428323591737886,25.428323591737886 0 0,0 0.4364103471681602,0.03387384216503569 l -0.3806799463080335 4.411930712468323" fill="#ff2b04" stroke="none" /><path d="M 102.16513564639614 79.11191278185805 l 0.45673406128061106 -4.406329424858632 a25.42993735882449,25.42993735882449 0 0,0 0.4350133441405577,0.04887881784720467 l -0.532514108930894 4.397814653540827" fill="#ff2b04" stroke="none" /><path d="M 105.01212808612495 79.60689891045804 l 1.078244223394722 -4.387107246475714 a25.51766760589619,25.51766760589619 0 0,0 0.4256481973255006,0.10850720295072708 l -1.1536013094052475 4.367897047356119" fill="#ff2c04" stroke="none" /><path d="M 106.0581310904928 79.89281104454417 l 2.109123462925563 -7.000268460017753 a28.31109843280628,28.31109843280628 0 0,0 0.46540025207768515,0.14460212377288023 l -2.2293090877139665 6.962926201362352" fill="#ff5307" stroke="none" /><path d="M 107.4271985657038 80.35727306442388 l 2.5943222058439575 -6.861209138477558 a28.335304939105328,28.335304939105328 0 0,0 0.45473689473078954,0.17643085039401177 l -2.7120422655744143 6.815535584192999" fill="#ff5407" stroke="none" /><path d="M 109.08828744355905 81.06846463323043 l 6.349081883118825 -13.225579512448759 a35.670609878210655,35.670609878210655 0 0,0 0.5512446585114704,0.27049335990231127 l -6.575797808640727 13.114330992411617" fill="#ffb710" stroke="none" /><path d="M 110.05341064243156 81.56283822128135 l 3.511658701918203 -6.440104945643757 a28.335304939105328,28.335304939105328 0 0,0 0.42621144090769325,0.23718620541579524 l -3.621994231897931 6.378703342667781" fill="#ff5407" stroke="none" /><line stroke="#e1ed5e" stroke-width="0.3" x1="143.23703022742887" x2="145.7803849466894" y1="26.81831364943548" y2="22.513508569990506" /><path d="M 143.74570117128098 25.957352633546492 a86.0,86.0 0 0,1 28.547481713284135,27.462654790039103" fill="none" id="id2" stroke="none" /><text fill="#e1ed5e" style="font-size:6.75px; font-family:Arial;" text-anchor="middle"><textPath startOffset="19.985693538727396" xlink:href="#id2">February</textPath></text><path d="M 110.99172775467656 82.1063720568725 l 3.8437900208358364 -6.257373732266958 a28.343667186735907,28.343667186735907 0 0,0 0.4135217513119341,0.25894728273497475 l -3.950930924520034 6.190282108209038" fill="#ff5407" stroke="none" /><path d="M 111.60114157652 82.49532879139004 l 5.872566322576254 -8.86096785815531 a31.63032391775144,31.63032391775144 0 0,0 0.4512522171504196,0.304687511366456 l -6.024223234133215 8.758568434490185" fill="#ff810b" stroke="none" /><path d="M 113.06298171725822 83.55741782278167 l 0.9334786110833024 -1.1749843263682047 a22.500656684442166,22.500656684442166 0 0,0 0.301183720193517,0.24353628913937186 l -0.9535657298413106 1.1587419399647032" fill="#ff0000" stroke="none" /><path d="M 114.42810811169701 84.74124197986012 l 3.1508464213374605 -3.3322458308192675 a25.58603264792865,25.58603264792865 0 0,0 0.3174090587745306,0.30534726305823073 l -3.2077387237244093 3.277515480998735" fill="#ff2d04" stroke="none" /><path d="M 116.60985879189232 87.15038557335679 l 5.803684167398318 -4.489809620867105 a28.33765223668584,28.33765223668584 0 0,0 0.2951488734154837,0.3883813204527174 l -5.880108981037915 4.389243524533354" fill="#ff5407" stroke="none" /><path d="M 117.45458315368197 88.32363383020206 l 3.304514380444646 -2.2105781375417943 a24.97573527699509,24.97573527699509 0 0,0 0.23596523396979022,0.35939123998016576 l -3.3420762497723615 2.1533688335839547" fill="#ff2403" stroke="none" /><line stroke="#e1ed5e" stroke-width="0.3" x1="172.23445277983987" x2="176.4835382374775" y1="55.19839476539836" y2="52.563006222186495" /><path d="M 173.08426987136738 54.67131705675599 a86.0,86.0 0 0,1 12.851231095245387,41.99856678651699" fill="none" id="id3" stroke="none" /><text fill="#e1ed5e" style="font-size:6.75px; font-family:Arial;" text-anchor="middle"><textPath startOffset="22.20632615414155" xlink:href="#id3">March</textPath></text><path d="M 118.56541770881063 90.18545643968196 l 6.49164907315318 -3.4317877252244062 a28.342933656241996,28.342933656241996 0 0,0 0.2243013433445749,0.43327880165804855 l -6.549759849657871 3.319536201306013" fill="#ff5407" stroke="none" /><path d="M 119.196687751892 91.48605970444005 l 13.41081509342059 -5.9478426953589265 a35.670609878210655,35.670609878210655 0 0,0 0.24410466786077684,0.5634272290342881 l -13.511210471124047 5.716116321738036" fill="#ffb710" stroke="none" /><path d="M 119.61058180528143 92.48833698450437 l 13.69996167381047 -5.247651316043805 a35.670609878210655,35.670609878210655 0 0,0 0.21469530542640128,0.5752766787525172 l -13.788261567738497 5.011051500261954" fill="#ffb710" stroke="none" /><path d="M 119.85752413597 93.16781622104841 l 6.934156979739146 -2.3857674558663455 a28.333104347623596,28.333104347623596 0 0,0 0.15470240096882615,0.4625404880035282 l -6.974196674479742 2.2660538649405035" fill="#ff5407" stroke="none" /><path d="M 120.73433829027371 96.67025291283417 l 5.557901591862254 -0.8925486975843765 a26.62911301026943,26.62911301026943 0 0,0 0.06878440208314193,0.4532032679086594 l -5.572441887384696 0.796746317283635" fill="#ff3c05" stroke="none" /><path d="M 120.78858239683441 97.02765380044208 l 4.373720611948851 -0.6253534555984868 a25.41820087092192,25.41820087092192 0 0,0 0.058200418791691355,0.43366072141749035 l -4.383837029798379 0.549974392116332" fill="#ff2a04" stroke="none" /><line stroke="#e1ed5e" stroke-width="0.3" x1="184.98032266829074" x2="189.97916517819016" y1="98.17113171792111" y2="98.06355123074" /><path d="M 185.9800911702706 98.14961562048488 a86.0,86.0 0 0,1 -9.607161424134198,41.387399972396054" fill="none" id="id4" stroke="none" /><text fill="#e1ed5e" style="font-size:6.75px; font-family:Arial;" text-anchor="middle"><textPath startOffset="21.466115282336823" xlink:href="#id4">April</textPath></text><path d="M 120.81339534386255 102.79330883721812 l 5.251210484900421 0.7047505902438034 a26.298290757515776,26.298290757515776 0 0,0 -0.06407509539283984,0.44814106794060815 l -5.238301338490979 -0.7950371301648209" fill="#ff3705" stroke="none" /><line stroke="#e1ed5e" stroke-width="0.3" x1="174.80103733775053" x2="179.2010983576182" y1="140.37084112569926" y2="142.7455964860345" /><path d="M 175.68104954172406 140.8457921977663 a86.0,86.0 0 0,1 -30.038265399797805,32.042727171017184" fill="none" id="id5" stroke="none" /><text fill="#e1ed5e" style="font-size:6.75px; font-family:Arial;" text-anchor="middle"><textPath startOffset="22.206326154141568" xlink:href="#id5">May</textPath></text><path d="M 118.48025628344425 109.97397251340804 l 27.323392216390154 14.746698247008915 a52.04887874624502,52.04887874624502 0 0,0 -0.43231201499728894,0.7847718807332887 l -27.065503791941357 -15.21484064614001" fill="#84ff25" stroke="none" /><path d="M 117.75023020441432 111.22182372390056 l 3.7275359426078385 2.356575142447783 a25.40998532939012,25.40998532939012 0 0,0 -0.23691197853119456,0.3676926518054487 l -3.6864191006995934 -2.420389394174685" fill="#ff2a04" stroke="none" /><path d="M 117.35343817320211 111.8261652097733 l 3.65439331411176 2.4904263145337278 a25.42230864168782,25.42230864168782 0 0,0 -0.2495491257734149,0.3594941279298876 l -3.6109832811762086 -2.552961704650635" fill="#ff2a04" stroke="none" /><path d="M 115.32070863581623 114.36230785411682 l 3.214127194189239 3.013064561342674 a25.40558414642666,25.40558414642666 0 0,0 -0.30183460966304254,0.316472381512833 l -3.161786033147232 -3.0679440594380143" fill="#ff2a04" stroke="none" /><path d="M 114.81725581225074 114.88116024355365 l 5.17567094017095 5.197992773055092 a28.335304939105328,28.335304939105328 0 0,0 -0.34859178002210733,0.34117042559572947 l -5.085429207773049 -5.286313301573394" fill="#ff5407" stroke="none" /><path d="M 113.75828350139079 115.86535959552629 l 2.8945162725779556 3.3378103827348413 a25.41805416482314,25.41805416482314 0 0,0 -0.33301829614178163,0.2838054166496701 l -2.836632499859127 -3.387140189607458" fill="#ff2a04" stroke="none" /><path d="M 112.92097659922987 116.55440617244103 l 8.131161577383699 10.417676277950921 a34.21528537829215,34.21528537829215 0 0,0 -0.4673991629251734,0.35838174720825977 l -7.950633685965032 -10.556097366986553" fill="#ffa40f" stroke="none" /><path d="M 111.1453310114006 117.79835938074945 l 3.8969598103574516 6.2231880889074604 a28.342640244044432,28.342640244044432 0 0,0 -0.41572012971434813,0.2553692578432075 l -3.789260480710795 -6.289345813579046" fill="#ff5407" stroke="none" /><line stroke="#e1ed5e" stroke-width="0.3" x1="143.8653032363475" x2="146.44561519142675" y1="172.8068346515853" y2="177.08958963109032" /><path d="M 144.38136562736335 173.6633856474863 a86.0,86.0 0 0,1 -40.68145358897372,12.25698825130547" fill="none" id="id6" stroke="none" /><text fill="#e1ed5e" style="font-size:6.75px; font-family:Arial;" text-anchor="middle"><textPath startOffset="21.466115282336833" xlink:href="#id6">June</textPath></text><path d="M 110.8373102113329 117.98757091392108 l 7.57095001141018 12.566125501656437 a35.670609878210655,35.670609878210655 0 0,0 -0.5286590406719774,0.3123410795980027 l -7.353523099709821 -12.69458515354819" fill="#ffb710" stroke="none" /><path d="M 110.21172684928248 118.3499491758327 l 7.133917180412984 12.819283125887363 a35.670609878210655,35.670609878210655 0 0,0 -0.539097041051281,0.29395869032641087 l -6.912197327493055 -12.940182467973544" fill="#ffb710" stroke="none" /><path d="M 109.57404056367764 118.69057910512821 l 4.203945315344018 8.207002252337247 a30.22106513285052,30.22106513285052 0 0,0 -0.4650390049212106,0.23318021111887519 l -4.062052402740046 -8.278150304365425" fill="#ff6e0a" stroke="none" /><path d="M 109.2508944713604 118.85261126421891 l 3.2321797629146607 6.586933706243489 a28.337212118389495,28.337212118389495 0 0,0 -0.43974945017016315,0.21110645961175614 l -3.118317644744265 -6.641594442354805" fill="#ff5407" stroke="none" /><path d="M 107.93186726928326 119.44442032107085 l 5.557331115457846 13.623410277021978 a35.71330135295624,35.71330135295624 0 0,0 -0.5712069156868336,0.22729502011902908 l -5.3220031237291465 -13.717052141547077" fill="#ffb711" stroke="none" /><path d="M 105.88484417918355 120.15858648285463 l 4.117321644122903 14.103922196338575 a35.69261579302797,35.69261579302797 0 0,0 -0.5912546934862734,0.1670944822627244 l -3.873935782532024 -14.17270547193982" fill="#ffb711" stroke="none" /><path d="M 104.48393922423573 120.51570834832081 l 1.8512968922920958 8.470379550001818 a29.670330438022496,29.670330438022496 0 0,0 -0.4998864881516277,0.10475607389745865 l -1.70521894271109 -8.500991604625819" fill="#ff6609" stroke="none" /><path d="M 103.41894727170886 120.7198165907248 l 2.39015010697836 14.485006028226936 a35.6808793051254,35.6808793051254 0 0,0 -0.6068538306049451,0.09477808776111997 l -2.140460412764898 -14.52400242333516" fill="#ffb711" stroke="none" /><path d="M 102.70371172650421 120.8252237178851 l 0.27423694588487935 2.1122983244764466 a23.130025848217404,23.130025848217404 0 0,0 -0.39527295147799824,0.047862049704916844 l -0.23783657135550082 -2.1167059029067143" fill="#ff0901" stroke="none" /><line stroke="#e1ed5e" stroke-width="0.3" x1="102.19456741930631" x2="102.32365962044197" y1="184.97166512339345" y2="189.96999836594603" /><path d="M 102.22038585953345 185.97133177190398 a86.0,86.0 0 0,1 -42.740103519485714,-10.115201625700543" fill="none" id="id7" stroke="none" /><text fill="#e1ed5e" style="font-size:6.75px; font-family:Arial;" text-anchor="middle"><textPath startOffset="22.20632615414155" xlink:href="#id7">July</textPath></text><path d="M 98.73552117531835 120.96189622390904 l -0.44168275086101877 7.321995281154916 a28.335304939105328,28.335304939105328 0 0,0 -0.4866079117012425,-0.033559330593877675 l 0.5676534233411913 -7.313307606044753" fill="#ff5407" stroke="none" /><path d="M 98.37488393609728 120.93702456842531 l -0.5681075460798642 7.319158252129588 a28.34117318305661,28.34117318305661 0 0,0 -0.4860587887499465,-0.041939197522065576 l 0.6940106525713524 -7.308294802328859" fill="#ff5407" stroke="none" /><path d="M 98.01472825383883 120.90594882070398 l -0.6938719613937803 7.306834311760848 a28.33970612206879,28.33970612206879 0 0,0 -0.48523974015584975,-0.05029708309274512 l 0.8195442981552233 -7.293807860212342" fill="#ff5407" stroke="none" /><path d="M 96.93821686468263 120.77559828337769 l -2.13896313856789 14.513842733421768 a35.670609878210655,35.670609878210655 0 0,0 -0.6066791700813622,-0.09475080937941141 l 2.3884781722577695 -14.474873616695252" fill="#ffb710" stroke="none" /><path d="M 96.22490169976321 120.6578951692458 l -2.6372854483176282 14.431615282522747 a35.670609878210655,35.670609878210655 0 0,0 -0.6030581768925518,-0.11557753489201243 l 2.885311239781875 -14.384080549282267" fill="#ffb710" stroke="none" /><path d="M 95.86986931433489 120.58985236759428 l -1.6244302279971947 8.098237349245911 a29.259553361432594,29.259553361432594 0 0,0 -0.4929657054303495,-0.10330575658870739 l 1.763587394856931 -8.069075611930664" fill="#ff6108" stroke="none" /><path d="M 95.51606077576429 120.51570834832081 l -1.567494018448328 7.171874664671591 a28.34117318305661,28.34117318305661 0 0,0 -0.47569964236165724,-0.10826768985644145 l 1.6907138102028478 -7.143830241237463" fill="#ff5407" stroke="none" /><path d="M 95.16358092515715 120.4354850818985 l -1.6998363667327192 7.182376087862844 a28.38078382972778,28.38078382972778 0 0,0 -0.4744276638018544,-0.1166027769947828 l 1.823217315277784 -7.152052052554032" fill="#ff5407" stroke="none" /><path d="M 94.46302465271185 120.25689768951611 l -1.2892489229335216 4.716687702244174 a25.88971427240761,25.88971427240761 0 0,0 -0.4288678410498924,-0.12120233572577607 l 1.3702479320880279 -4.693796573179877" fill="#ff3104" stroke="none" /><path d="M 94.11515582081647 120.15858648285463 l -4.111154911755261 14.082797999339572 a35.670609878210655,35.670609878210655 0 0,0 -0.5879281312298896,-0.17713792309156462 l 4.352958017425396 -14.009944707142282" fill="#ffb710" stroke="none" /><path d="M 93.76903079525671 120.05430185196036 l -1.3071932926328462 4.207186395554826 a25.40558414642666,25.40558414642666 0 0,0 -0.41650477795765234,-0.13335167711466187 l 1.379419415681439 -4.184061871780457" fill="#ff2a04" stroke="none" /><path d="M 92.7421414339146 119.70592522655815 l -1.6904524923267155 4.589773982163206 a25.89118133339543,25.89118133339543 0 0,0 -0.4168847346912609,-0.15763013525147995 l 1.7692074477782593 -4.559995596805093" fill="#ff3104" stroke="none" /><path d="M 92.06813273071674 119.44442032107085 l -6.653326290823935 16.310166136164057 a38.61500128076753,38.61500128076753 0 0,0 -0.6132954770799056,-0.2563575591591374 l 6.933093227401303 -16.193223533984945" fill="#ffdc14" stroke="none" /><path d="M 90.10565033884886 118.52300852407294 l -1.9796533145940085 3.706068258827621 a25.20166266911953,25.20166266911953 0 0,0 -0.3808777540076289,-0.20768491981371742 l 2.043153880470278 -3.671442687254138" fill="#ff2703" stroke="none" /><line stroke="#e1ed5e" stroke-width="0.3" x1="58.666819895761336" x2="56.23545636021788" y1="174.27360380694188" y2="178.64263932499728" /><path d="M 58.180547188652646 175.14741091055294 a86.0,86.0 0 0,1 -31.652253787137756,-30.449443065178592" fill="none" id="id8" stroke="none" /><text fill="#e1ed5e" style="font-size:6.75px; font-family:Arial;" text-anchor="middle"><textPath startOffset="22.20632615414155" xlink:href="#id8">August</textPath></text><path d="M 83.50135304334701 112.99209946851258 l -6.528535693259008 5.140990369295273 a29.309726847216076,29.309726847216076 0 0,0 -0.30871960799070247,-0.3990617091499367 l 6.616062118467779 -5.027850666032084" fill="#ff6109" stroke="none" /><path d="M 83.28015986056508 112.70617746262583 l -5.847602800692993 4.443862997308786 a28.3445474233286,28.3445474233286 0 0,0 -0.29186614432960317,-0.39100239641313933 l 5.923230211717681 -4.342547721386339" fill="#ff5407" stroke="none" /><path d="M 83.06392112726016 112.41649034213515 l -6.665896772629969 4.8870251208059114 a29.26542160538388,29.26542160538388 0 0,0 -0.2943546870335508,-0.4088329153011349 l 6.749031252039127 -4.771558600053638" fill="#ff6108" stroke="none" /><path d="M 82.6465618267979 111.8261652097733 l -8.944195525760923 6.095364670702939 a31.823682555946256,31.823682555946256 0 0,0 -0.3045933984828528,-0.4553258029568572 l 9.047792029654508 -5.940501953540261" fill="#ff840c" stroke="none" /><path d="M 82.44556493220864 111.52570212397912 l -6.5904245665866945 4.327070061308976 a28.883985748550405,28.883985748550405 0 0,0 -0.26930209218347106,-0.417962827483866 l 6.6639315221472115 -4.212985633903662" fill="#ff5b08" stroke="none" /><path d="M 82.05923443525364 110.91462005526583 l -16.19694805159518 9.853734134145284 a39.958829145611624,39.958829145611624 0 0,0 -0.35243520678448353,-0.5907016786060146 l 16.364164134077896 -9.573470361653158" fill="#ffed16" stroke="none" /><line stroke="#e1ed5e" stroke-width="0.3" x1="26.63291911575756" x2="22.317208475507996" y1="142.92168965132927" y2="145.44649492493687" /><path d="M 25.769776987707644 143.4266507060508 a86.0,86.0 0 0,1 -11.730757126820373,-40.83630448921669" fill="none" id="id9" stroke="none" /><text fill="#e1ed5e" style="font-size:6.75px; font-family:Arial;" text-anchor="middle"><textPath startOffset="21.46611528233685" xlink:href="#id9">September</textPath></text><path d="M 81.69416730710424 110.29060199501025 l -8.747948340992949 4.917648716684972 a31.035430687189994,31.035430687189994 0 0,0 -0.2577767264132507,-0.4679396347516799 l 8.831301476857716 -4.766338563535469" fill="#ff790b" stroke="none" /><path d="M 81.51974371655577 109.97397251340807 l -7.664596244106264 4.136656499378318 a29.7096476724961,29.7096476724961 0 0,0 -0.23901764075193177,-0.452131300152913 l 7.7346663930830815 -4.004110184139279" fill="#ff6709" stroke="none" /><path d="M 81.35079622478065 109.6543875284942 l -7.163894706853175 3.7086310250516514 a29.06692825373169,29.06692825373169 0 0,0 -0.22619790859295144,-0.44630993305504824 l 7.226671285232393 -3.5847668802939183" fill="#ff5e08" stroke="none" /><path d="M 81.02952815118164 109.00673069616217 l -9.791154275602782 4.648608135196382 a31.83864657802203,31.83864657802203 0 0,0 -0.23079286545908306,-0.49710729990166974 l 9.869721757901692 -4.4793807680158855" fill="#ff840c" stroke="none" /><path d="M 80.87730276802145 108.67885076344099 l -20.085444860591764 9.11579451097981 a43.057261951889714,43.057261951889714 0 0,0 -0.30049645743381387,-0.6775401827653195 l 20.239382402756856 -8.768705991721795" fill="#ebff1a" stroke="none" /><path d="M 80.58989483394504 108.01547362559985 l -9.76177820066807 4.03116186321589 a31.56137205132385,31.56137205132385 0 0,0 -0.20304089783732374,-0.5039308571693953 l 9.829721712762781 -3.862531638203689" fill="#ff800b" stroke="none" /><path d="M 80.45479744820244 107.68017299344265 l -10.01227953926596 3.934266668072814 a31.757518105395526,31.757518105395526 0 0,0 -0.1955442265209689,-0.5105042708690872 l 10.078518045380438 -3.761338830370569" fill="#ff830c" stroke="none" /><path d="M 80.20201598880116 107.00284435728193 l -10.398747837007086 3.678193323723832 a32.03009803693268,32.03009803693268 0 0,0 -0.17938253404431342,-0.5213696110356912 l 10.460521201994627 -3.498651009598844" fill="#ff860c" stroke="none" /><path d="M 80.0844068197444 106.66101706037122 l -13.55019060856103 4.532029249542472 a35.28800037258692,35.28800037258692 0 0,0 -0.1877115756075924,-0.5777168259847175 l 13.626194435184871 -4.298113523579951" fill="#ffb210" stroke="none" /><path d="M 79.97269907076064 106.31721596034903 l -21.623216998909783 6.820616119078377 a43.67342756677456,43.67342756677456 0 0,0 -0.2199752090217849,-0.7188917107636102 l 21.7374189804377 -6.447397435762718" fill="#e4ff1b" stroke="none" /><path d="M 79.76711848015287 105.62410040840567 l -8.858923567913873 2.4625002428579195 a30.194804741168525,30.194804741168525 0 0,0 -0.1348872722501674,-0.501965719339817 l 8.899998916505815 -2.3096435903425636" fill="#ff6d0a" stroke="none" /><path d="M 79.67330655649465 105.27499134158121 l -11.087545518959303 2.877335006524889 a32.45481219290688,32.45481219290688 0 0,0 -0.13567453843885735,-0.5419523387446917 l 11.135431371693217 -2.6860548283828054" fill="#ff8c0c" stroke="none" /><path d="M 79.50377843672027 104.57218783832718 l -8.610532219741238 1.9207916237184506 a29.822171250261974,29.822171250261974 0 0,0 -0.1074534883321628,-0.5019869243796282 l 8.64231974679784 -1.7722908799226587" fill="#ff6809" stroke="none" /><path d="M 79.35854240842038 103.8639653848113 l -16.751867324689506 3.1358558467284183 a38.042847495517314,38.042847495517314 0 0,0 -0.11495019129229801,-0.6447017186843113 l 16.803363958320993 -2.8470353773108936" fill="#ffd513" stroke="none" /><path d="M 79.23777060512086 103.15116336523772 l -8.816127148169974 1.3380575064565534 a29.917090096173997,29.917090096173997 0 0,0 -0.07289220502822141,-0.5098079121945799 l 8.837853404214794 -1.186104122281573" fill="#ff6a09" stroke="none" /><path d="M 79.18660465613746 102.79330883721812 l -12.425223335918055 1.6675552246627219 a33.53662296532613,33.53662296532613 0 0,0 -0.07186178182843661,-0.5728091066104591 l 12.45208662699334 -1.4534283637648542" fill="#ff9b0e" stroke="none" /><path d="M 79.1416061653843 102.43462659150553 l -8.820240170523402 1.0295131750261732 a29.880120159280906,29.880120159280906 0 0,0 -0.05523226168834799,-0.5113821470366775 l 8.836654733712802 -0.8775347061047136" fill="#ff6909" stroke="none" /><path d="M 79.07016306316243 101.71520430193888 l -13.278161879058938 1.0881480082970933 a34.322674242600655,34.322674242600655 0 0,0 -0.04318681758726127,-0.5892498138918207 l 13.294925255310535 -0.859425057908512" fill="#ffa50f" stroke="none" /><path d="M 79.0235259727143 100.99374915477108 l -26.861102083236865 1.2725302382428245 a47.89122790676012,47.89122790676012 0 0,0 -0.031922621230080474,-0.8237810089695236 l 26.879026837318147 -0.8099719822593042" fill="#b2ff20" stroke="none" /><line stroke="#e1ed5e" stroke-width="0.3" x1="15.007084014347285" x2="10.007500721073583" y1="101.09737516637583" y2="101.16192664675087" /><path d="M 14.007167355692545 101.11028546245083 a86.0,86.0 0 0,1 10.666146001902534,-42.60595125391555" fill="none" id="id10" stroke="none" /><text fill="#e1ed5e" style="font-size:6.75px; font-family:Arial;" text-anchor="middle"><textPath startOffset="22.20632615414155" xlink:href="#id10">October</textPath></text><path d="M 79.00175016825051 100.2711162175752 l -14.197473023306788 0.1833088574546329 a35.198656358428615,35.198656358428615 0 0,0 -0.0026075545286980664,-0.6059038406446609 l 14.19852487512499 0.061104461393703374" fill="#ffb010" stroke="none" /><path d="M 79.00019446554 99.90962569577889 l -8.625358497960372 -0.037119904354911464 a29.62543837179517,29.62543837179517 0 0,0 0.006583890953129745,-0.5099296100222839 l 8.623441599889526 0.18558577243766727" fill="#ff6609" stroke="none" /><path d="M 79.01574976396665 99.18683210126434 l -7.274097035921862 -0.2818810362708461 a28.279556621568126,28.279556621568126 0 0,0 0.023036246407214158,-0.4862587526511424 l 7.268167181281149 0.4070508955449976" fill="#ff5307" stroke="none" /><path d="M 79.03285615573316 98.82574320788736 l -34.45773318003432 -1.9297920369122816 a55.51172950189787,55.51172950189787 0 0,0 0.06164289163367331,-0.9535882497832537 l 34.419409697396226 2.522639350948547" fill="#60ff29" stroke="none" /><path d="M 79.08570108090925 98.10471618934814 l -13.059078574307797 -1.183432459279017 a34.11259110914468,34.11259110914468 0 0,0 0.05802856213549995,-0.5843397015730399 l 13.036772886490068 1.4080476915564875" fill="#ffa20f" stroke="none" /><path d="M 79.12142395522702 97.74499172005258 l -15.033566585483676 -1.6237130853516124 a36.120997601471714,36.120997601471714 0 0,0 0.07208658374456624,-0.6175938269886223 l 15.00338964873552 1.8822506506650964" fill="#ffbc11" stroke="none" /><path d="M 79.21141760316559 97.0276538004421 l -15.241942885663567 -2.1792890994327467 a36.39695177328086,36.39695177328086 0 0,0 0.09401524430830596,-0.6194429938091809 l 15.20217174791596 2.44133120563402" fill="#ffc011" stroke="none" /><path d="M 79.26566170972629 96.67025291283419 l -10.450940835362564 -1.6783265189135361 a31.584845027128985,31.584845027128985 0 0,0 0.09082619025526478,-0.5360613162624247 l 10.420502783587077 1.8579736234917887" fill="#ff800b" stroke="none" /><path d="M 79.32604984820605 96.31383870115002 l -22.44719283614535 -4.002330125249027 a43.80120857881378,43.80120857881378 0 0,0 0.13873360383299796,-0.7411204591279508 l 22.37497350840249 4.388128661839551" fill="#e2ff1b" stroke="none" /><path d="M 79.46518482838121 95.60439243477599 l -11.036811623979405 -2.362499602010868 a32.286833709801364,32.286833709801364 0 0,0 0.12100738280443778,-0.5424523699489618 l 10.994509854172929 2.5521301415097892" fill="#ff8a0c" stroke="none" /><path d="M 79.54389044137918 95.25157060432595 l -17.398292021916394 -4.0386252837882735 a38.86088070232634,38.86088070232634 0 0,0 0.1568632398349879,-0.6502993995009442 l 17.32619598182059 4.3375099149486145" fill="#ffdf14" stroke="none" /><path d="M 79.71946130924805 94.55025226153421 l -10.284971789426146 -2.7637580344534403 a31.649835828889458,31.649835828889458 0 0,0 0.14591061036377573,-0.5249180984689695 l 10.23587440849601 2.9403874363413522" fill="#ff810b" stroke="none" /><path d="M 79.91906864156998 93.8553929516997 l -35.79917130727969 -10.954264840195084 a58.43763593600819,58.43763593600819 0 0,0 0.30260821188528747,-0.9593507268272669 l 35.6053076116262 11.568865733448765" fill="#42ff2d" stroke="none" /><path d="M 80.95270993114464 91.15688171328213 l -7.983867481065517 -3.706683956894528 a29.80236592692639,29.80236592692639 0 0,0 0.22002917338570052,-0.46343755358542826 l 7.918880113838065 3.8435639261204884" fill="#ff6809" stroke="none" /><path d="M 81.10775173730289 90.83032412892265 l -9.600322324676345 -4.659680666433404 a31.671401625410425,31.671401625410425 0 0,0 0.24227112127872344,-0.48840379691369384 l 9.518691190444208 4.824244051846059" fill="#ff820b" stroke="none" /><path d="M 81.6062741919709 89.86733742301443 l -7.925925540123259 -4.3662023641411665 a30.048978878979113,30.048978878979113 0 0,0 0.2534736664464901,-0.45090136925655666 l 7.849594232384338 4.501987243332508" fill="#ff6b09" stroke="none" /><line stroke="#e1ed5e" stroke-width="0.3" x1="26.266209847984243" x2="21.928928074336255" y1="57.711370442889674" y2="55.22380399835377" /><path d="M 25.398753493254645 57.213857153982495 a86.0,86.0 0 0,1 29.58750427330803,-30.492523968695096" fill="none" id="id11" stroke="none" /><text fill="#e1ed5e" style="font-size:6.75px; font-family:Arial;" text-anchor="middle"><textPath startOffset="21.46611528233685" xlink:href="#id11">November</textPath></text><path d="M 81.78341655067845 89.55222093294921 l -13.464228365076163 -7.722155126288149 a36.52150525114687,36.52150525114687 0 0,0 0.3174594027322898,-0.5426410252468225 l 13.32930928787355 7.952775563888863" fill="#ffc212" stroke="none" /><path d="M 81.96595687620814 89.24020034530311 l -12.752293819646129 -7.608506073505015 a35.84959131872482,35.84959131872482 0 0,0 0.3207415165087609,-0.5272147198370533 l 12.619436504851151 7.826888566549142" fill="#ffb911" stroke="none" /><path d="M 82.34701348167596 88.62581576622439 l -11.317306102042794 -7.291974335393567 a34.46307197913513,34.46307197913513 0 0,0 0.32559949697917084,-0.4959103719967652 l 11.190109969705702 7.4857027713679996" fill="#ffa70f" stroke="none" /><path d="M 82.54541684631803 88.32363383020206 l -12.00794679441575 -8.032800467622348 a35.44702978366672,35.44702978366672 0 0,0 0.34362609660314414,-0.5042288955318748 l 11.867896232143865 8.238307386424639" fill="#ffb410" stroke="none" /><path d="M 82.7489923806493 88.02491185347247 l -7.328916421923768 -5.087495299267249 a29.921637985236245,29.921637985236245 0 0,0 0.2973461067769388,-0.42057498094797835 l 7.240257695342952 5.212896780547013" fill="#ff6a09" stroke="none" /><path d="M 82.95767976084542 87.72973835380427 l -12.416411536836216 -8.939664090679088 a36.2998323358871,36.2998323358871 0 0,0 0.36945863474598295,-0.5039411625875604 l 12.2606902895766 9.152067696938149" fill="#ffbf11" stroke="none" /><path d="M 83.39014120810768 87.1503855733568 l -23.35328431226509 -18.066420838860992 a50.525776028689194,50.525776028689194 0 0,0 0.5380896968399663,-0.6833192711225003 l 23.038840534831152 18.46573250393654" fill="#95ff23" stroke="none" /><path d="M 83.84228863543731 86.58626213691792 l -8.417301095327106 -6.9878380582402055 a31.939873786181682,31.939873786181682 0 0,0 0.354820645756048,-0.41999572838236554 l 8.295769836083933 7.131692736251687" fill="#ff850c" stroke="none" /><path d="M 84.31358615837235 86.03803664274999 l -7.967513248511147 -7.091622670881541 a31.666413618051838,31.666413618051838 0 0,0 0.3659074592049026,-0.40404415552982686 l 7.844262148690199 7.227719613680923" fill="#ff820b" stroke="none" /><path d="M 85.31137513191541 84.99185889309783 l -6.461654108538901 -6.602212086963862 a30.23808304030925,30.23808304030925 0 0,0 0.37512034823997287,-0.36086547779938766 l 6.347050516686501 6.712460651525563" fill="#ff6e0a" stroke="none" /><path d="M 85.57189188830299 84.74124197986013 l -7.439565691378655 -7.867873721271244 a31.8282304450085,31.8282304450085 0 0,0 0.4013268806951804,-0.37298959742266063 l 7.303030926888618 7.994767904768553" fill="#ff840c" stroke="none" /><path d="M 89.00827224532344 82.1063720568725 l -32.97518326402967 -53.68088382938249 a84.0,84.0 0 0,0 1.2385517351294033,-0.746213562165523 l 32.046269462682616 54.240544001006626" fill="#4dd2ff" stroke="none" /><line stroke="#e1ed5e" stroke-width="0.3" x1="56.762969772571076" x2="54.21961505331055" y1="26.818313649435495" y2="22.513508569990535" /><path d="M 56.25429882871897 25.957352633546506 a86.0,86.0 0 0,1 42.265352541879196,-11.944610805530505" fill="none" id="id12" stroke="none" /><text fill="#e1ed5e" style="font-size:6.75px; font-family:Arial;" text-anchor="middle"><textPath startOffset="22.20632615414155" xlink:href="#id12">December</textPath></text><path d="M 91.90106846888425 80.62456947434976 l -4.330004168849094 -10.358859638087786 a32.22741773979461,32.22741773979461 0 0,0 0.5136684075725159,-0.20953824089443937 l 4.151051891688198 10.431858765165801" fill="#ff890c" stroke="none" /></svg>